<svg width="96" height="32" viewBox="0 0 96 32" fill="none" xmlns="http://www.w3.org/2000/svg">
<path d="M30.9121 9.59998V1.59998C25.792 1.59998 20.8 3.32797 17.216 6.33597L16.256 7.10398L15.296 6.33597C11.648 3.32797 6.72004 1.59998 1.60004 1.59998V9.59998C1.60004 11.776 2.36805 13.824 3.64805 15.552C2.36805 17.28 1.60004 19.328 1.60004 21.504V29.504C6.72004 29.504 11.712 27.776 15.296 24.768L16.256 24C13.76 22.528 12.224 19.904 12.224 16.96V14.144C12.224 11.264 13.76 8.57598 16.256 7.10398C18.752 8.57598 20.288 11.264 20.288 14.144V16.96C20.288 19.84 18.752 22.528 16.256 24L17.216 24.768C20.864 27.776 25.792 29.504 30.9121 29.504V21.504C30.9121 19.328 30.144 17.28 28.864 15.552C30.144 13.824 30.9121 11.776 30.9121 9.59998Z" fill="#25D076"/>
<path d="M43.4 23.5V9.1H49.22C49.36 9.1 49.5333 9.10667 49.74 9.12C49.9467 9.12667 50.1433 9.14667 50.33 9.18C51.13 9.30667 51.7967 9.58 52.33 10C52.87 10.42 53.2733 10.95 53.54 11.59C53.8067 12.23 53.94 12.9367 53.94 13.71C53.94 14.49 53.8067 15.2 53.54 15.84C53.2733 16.48 52.87 17.01 52.33 17.43C51.7967 17.85 51.13 18.1233 50.33 18.25C50.1433 18.2767 49.9433 18.2967 49.73 18.31C49.5233 18.3233 49.3533 18.33 49.22 18.33H45.49V23.5H43.4ZM45.49 16.35H49.14C49.2733 16.35 49.42 16.3433 49.58 16.33C49.7467 16.3167 49.9033 16.2933 50.05 16.26C50.4767 16.16 50.82 15.9767 51.08 15.71C51.34 15.4367 51.5267 15.1233 51.64 14.77C51.7533 14.4167 51.81 14.0633 51.81 13.71C51.81 13.3567 51.7533 13.0067 51.64 12.66C51.5267 12.3067 51.34 11.9967 51.08 11.73C50.82 11.4567 50.4767 11.27 50.05 11.17C49.9033 11.13 49.7467 11.1033 49.58 11.09C49.42 11.0767 49.2733 11.07 49.14 11.07H45.49V16.35ZM59.4923 23.8C58.4123 23.8 57.4757 23.5567 56.6823 23.07C55.889 22.5833 55.2757 21.9133 54.8423 21.06C54.4157 20.2 54.2023 19.21 54.2023 18.09C54.2023 16.9633 54.4223 15.9733 54.8623 15.12C55.3023 14.26 55.919 13.5933 56.7123 13.12C57.5057 12.64 58.4323 12.4 59.4923 12.4C60.5723 12.4 61.509 12.6433 62.3023 13.13C63.0957 13.6167 63.709 14.2867 64.1423 15.14C64.5757 15.9933 64.7923 16.9767 64.7923 18.09C64.7923 19.2167 64.5723 20.21 64.1323 21.07C63.699 21.9233 63.0857 22.5933 62.2923 23.08C61.499 23.56 60.5657 23.8 59.4923 23.8ZM59.4923 21.83C60.5257 21.83 61.2957 21.4833 61.8023 20.79C62.3157 20.09 62.5723 19.19 62.5723 18.09C62.5723 16.9633 62.3123 16.0633 61.7923 15.39C61.279 14.71 60.5123 14.37 59.4923 14.37C58.7923 14.37 58.2157 14.53 57.7623 14.85C57.309 15.1633 56.9723 15.6 56.7523 16.16C56.5323 16.7133 56.4223 17.3567 56.4223 18.09C56.4223 19.2233 56.6823 20.13 57.2023 20.81C57.7223 21.49 58.4857 21.83 59.4923 21.83ZM69.9245 23.79C68.6112 23.79 67.5412 23.5 66.7145 22.92C65.8879 22.34 65.3812 21.5233 65.1945 20.47L67.3345 20.14C67.4679 20.7 67.7745 21.1433 68.2545 21.47C68.7412 21.79 69.3445 21.95 70.0645 21.95C70.7179 21.95 71.2279 21.8167 71.5945 21.55C71.9679 21.2833 72.1545 20.9167 72.1545 20.45C72.1545 20.1767 72.0879 19.9567 71.9545 19.79C71.8279 19.6167 71.5579 19.4533 71.1445 19.3C70.7312 19.1467 70.1012 18.9567 69.2545 18.73C68.3279 18.49 67.5912 18.2333 67.0445 17.96C66.5045 17.68 66.1179 17.3567 65.8845 16.99C65.6579 16.6167 65.5445 16.1667 65.5445 15.64C65.5445 14.9867 65.7179 14.4167 66.0645 13.93C66.4112 13.4433 66.8979 13.0667 67.5245 12.8C68.1579 12.5333 68.8979 12.4 69.7445 12.4C70.5712 12.4 71.3079 12.53 71.9545 12.79C72.6012 13.05 73.1245 13.42 73.5245 13.9C73.9245 14.3733 74.1645 14.93 74.2445 15.57L72.1045 15.96C72.0312 15.44 71.7879 15.03 71.3745 14.73C70.9612 14.43 70.4245 14.2667 69.7645 14.24C69.1312 14.2133 68.6179 14.32 68.2245 14.56C67.8312 14.7933 67.6345 15.1167 67.6345 15.53C67.6345 15.77 67.7079 15.9733 67.8545 16.14C68.0079 16.3067 68.3012 16.4667 68.7345 16.62C69.1679 16.7733 69.8079 16.9567 70.6545 17.17C71.5612 17.4033 72.2812 17.6633 72.8145 17.95C73.3479 18.23 73.7279 18.5667 73.9545 18.96C74.1879 19.3467 74.3045 19.8167 74.3045 20.37C74.3045 21.4367 73.9145 22.2733 73.1345 22.88C72.3612 23.4867 71.2912 23.79 69.9245 23.79ZM75.7172 10.93V8.9H77.8072V10.93H75.7172ZM75.7172 23.5V12.7H77.8072V23.5H75.7172ZM80.8002 23.5V12.32C80.8002 12.0467 80.8102 11.7567 80.8302 11.45C80.8502 11.1367 80.9068 10.83 81.0002 10.53C81.1002 10.2233 81.2635 9.94333 81.4902 9.69C81.7635 9.39 82.0635 9.17667 82.3902 9.05C82.7168 8.92333 83.0402 8.85 83.3602 8.83C83.6868 8.81 83.9868 8.8 84.2602 8.8H85.6202V10.52H84.3602C83.8668 10.52 83.4968 10.6433 83.2502 10.89C83.0102 11.13 82.8902 11.4733 82.8902 11.92V23.5H80.8002ZM79.0102 14.38V12.7H85.6202V14.38H79.0102ZM87.6725 28.3L89.7625 22.61L89.7925 24.29L85.0825 12.7H87.2625L90.7825 21.65H90.1425L93.5025 12.7H95.6225L89.6625 28.3H87.6725Z" fill="#25D076"/>
</svg>
