<svg width="32" height="32" viewBox="0 0 32 32" fill="none" xmlns="http://www.w3.org/2000/svg">
<path d="M30.912 9.59998V1.59998C25.792 1.59998 20.8 3.32797 17.216 6.33597L16.256 7.10398L15.296 6.33597C11.648 3.32797 6.72004 1.59998 1.60004 1.59998V9.59998C1.60004 11.776 2.36804 13.824 3.64804 15.552C2.36804 17.28 1.60004 19.328 1.60004 21.504V29.504C6.72004 29.504 11.712 27.776 15.296 24.768L16.256 24C13.76 22.528 12.224 19.904 12.224 16.96V14.144C12.224 11.264 13.76 8.57598 16.256 7.10398C18.752 8.57598 20.288 11.264 20.288 14.144V16.96C20.288 19.84 18.752 22.528 16.256 24L17.216 24.768C20.864 27.776 25.792 29.504 30.912 29.504V21.504C30.912 19.328 30.144 17.28 28.864 15.552C30.144 13.824 30.912 11.776 30.912 9.59998Z" fill="#25D076"/>
</svg>
